<svg xmlns="http://www.w3.org/2000/svg" width="680" height="289" viewBox="0 0 680 289">
<rect x="0.0" y="0.0" width="680.0" height="289.0" rx="12" fill="#FFFFFF" stroke="#C9C7BF" stroke-width="1"/>
<text x="14.0" y="22.0" font-family="Segoe UI, Helvetica, Arial, sans-serif" font-size="13" fill="#2C2C2A" text-anchor="start" font-weight="400">Aquanaut  ▾</text>
<text x="97.2" y="22.0" font-family="Segoe UI, Helvetica, Arial, sans-serif" font-size="12" fill="#888780" text-anchor="start" font-weight="400">VIA</text>
<text x="666.0" y="22.0" font-family="Segoe UI, Helvetica, Arial, sans-serif" font-size="15" fill="#5F5E5A" text-anchor="end" font-weight="400">⚙</text>
<line x1="0" y1="34" x2="680" y2="34" stroke="#E2E0D8" stroke-width="1"/>
<text x="12.0" y="61.0" font-family="Segoe UI, Helvetica, Arial, sans-serif" font-size="12" fill="#888780" text-anchor="start" font-weight="400">Layer</text>
<rect x="53.0" y="46.0" width="26.6" height="21.0" rx="6" fill="#E6F1FB" stroke="#378ADD" stroke-width="1"/>
<text x="66.3" y="61.0" font-family="Segoe UI, Helvetica, Arial, sans-serif" font-size="12" fill="#0C447C" text-anchor="middle" font-weight="400">0</text>
<rect x="83.6" y="46.0" width="26.6" height="21.0" rx="6" fill="#FFFFFF" stroke="#E2E0D8" stroke-width="1"/>
<text x="96.9" y="61.0" font-family="Segoe UI, Helvetica, Arial, sans-serif" font-size="12" fill="#5F5E5A" text-anchor="middle" font-weight="400">1</text>
<rect x="114.2" y="46.0" width="26.6" height="21.0" rx="6" fill="#FFFFFF" stroke="#E2E0D8" stroke-width="1"/>
<text x="127.5" y="61.0" font-family="Segoe UI, Helvetica, Arial, sans-serif" font-size="12" fill="#5F5E5A" text-anchor="middle" font-weight="400">2</text>
<rect x="144.8" y="46.0" width="26.6" height="21.0" rx="6" fill="#FFFFFF" stroke="#E2E0D8" stroke-width="1"/>
<text x="158.1" y="61.0" font-family="Segoe UI, Helvetica, Arial, sans-serif" font-size="12" fill="#5F5E5A" text-anchor="middle" font-weight="400">3</text>
<rect x="146.0" y="76.0" width="24.0" height="24.0" rx="3" fill="#F4F3EF" stroke="#C9C7BF" stroke-width="1"/>
<text x="158.0" y="91.8" font-family="Segoe UI, Helvetica, Arial, sans-serif" font-size="11" fill="#5F5E5A" text-anchor="middle" font-weight="400">Esc</text>
<rect x="172.0" y="76.0" width="24.0" height="24.0" rx="3" fill="#F4F3EF" stroke="#C9C7BF" stroke-width="1"/>
<text x="184.0" y="91.8" font-family="Segoe UI, Helvetica, Arial, sans-serif" font-size="11" fill="#5F5E5A" text-anchor="middle" font-weight="400">1</text>
<rect x="198.0" y="76.0" width="24.0" height="24.0" rx="3" fill="#F4F3EF" stroke="#C9C7BF" stroke-width="1"/>
<text x="210.0" y="91.8" font-family="Segoe UI, Helvetica, Arial, sans-serif" font-size="11" fill="#5F5E5A" text-anchor="middle" font-weight="400">2</text>
<rect x="224.0" y="76.0" width="24.0" height="24.0" rx="3" fill="#F4F3EF" stroke="#C9C7BF" stroke-width="1"/>
<text x="236.0" y="91.8" font-family="Segoe UI, Helvetica, Arial, sans-serif" font-size="11" fill="#5F5E5A" text-anchor="middle" font-weight="400">3</text>
<rect x="250.0" y="76.0" width="24.0" height="24.0" rx="3" fill="#F4F3EF" stroke="#C9C7BF" stroke-width="1"/>
<text x="262.0" y="91.8" font-family="Segoe UI, Helvetica, Arial, sans-serif" font-size="11" fill="#5F5E5A" text-anchor="middle" font-weight="400">4</text>
<rect x="276.0" y="76.0" width="24.0" height="24.0" rx="3" fill="#F4F3EF" stroke="#C9C7BF" stroke-width="1"/>
<text x="288.0" y="91.8" font-family="Segoe UI, Helvetica, Arial, sans-serif" font-size="11" fill="#5F5E5A" text-anchor="middle" font-weight="400">5</text>
<rect x="302.0" y="76.0" width="24.0" height="24.0" rx="3" fill="#F4F3EF" stroke="#C9C7BF" stroke-width="1"/>
<text x="314.0" y="91.8" font-family="Segoe UI, Helvetica, Arial, sans-serif" font-size="11" fill="#5F5E5A" text-anchor="middle" font-weight="400">6</text>
<rect x="328.0" y="76.0" width="24.0" height="24.0" rx="3" fill="#F4F3EF" stroke="#C9C7BF" stroke-width="1"/>
<text x="340.0" y="91.8" font-family="Segoe UI, Helvetica, Arial, sans-serif" font-size="11" fill="#5F5E5A" text-anchor="middle" font-weight="400">7</text>
<rect x="354.0" y="76.0" width="24.0" height="24.0" rx="3" fill="#F4F3EF" stroke="#C9C7BF" stroke-width="1"/>
<text x="366.0" y="91.8" font-family="Segoe UI, Helvetica, Arial, sans-serif" font-size="11" fill="#5F5E5A" text-anchor="middle" font-weight="400">8</text>
<rect x="380.0" y="76.0" width="24.0" height="24.0" rx="3" fill="#F4F3EF" stroke="#C9C7BF" stroke-width="1"/>
<text x="392.0" y="91.8" font-family="Segoe UI, Helvetica, Arial, sans-serif" font-size="11" fill="#5F5E5A" text-anchor="middle" font-weight="400">9</text>
<rect x="406.0" y="76.0" width="24.0" height="24.0" rx="3" fill="#F4F3EF" stroke="#C9C7BF" stroke-width="1"/>
<text x="418.0" y="91.8" font-family="Segoe UI, Helvetica, Arial, sans-serif" font-size="11" fill="#5F5E5A" text-anchor="middle" font-weight="400">0</text>
<rect x="432.0" y="76.0" width="24.0" height="24.0" rx="3" fill="#F4F3EF" stroke="#C9C7BF" stroke-width="1"/>
<text x="444.0" y="91.8" font-family="Segoe UI, Helvetica, Arial, sans-serif" font-size="11" fill="#5F5E5A" text-anchor="middle" font-weight="400">-</text>
<rect x="458.0" y="76.0" width="24.0" height="24.0" rx="3" fill="#F4F3EF" stroke="#C9C7BF" stroke-width="1"/>
<text x="470.0" y="91.8" font-family="Segoe UI, Helvetica, Arial, sans-serif" font-size="11" fill="#5F5E5A" text-anchor="middle" font-weight="400">=</text>
<rect x="484.0" y="76.0" width="50.0" height="24.0" rx="3" fill="#F4F3EF" stroke="#C9C7BF" stroke-width="1"/>
<text x="509.0" y="91.8" font-family="Segoe UI, Helvetica, Arial, sans-serif" font-size="11" fill="#5F5E5A" text-anchor="middle" font-weight="400">Bksp</text>
<rect x="146.0" y="102.0" width="37.0" height="24.0" rx="3" fill="#F4F3EF" stroke="#C9C7BF" stroke-width="1"/>
<text x="164.5" y="117.8" font-family="Segoe UI, Helvetica, Arial, sans-serif" font-size="11" fill="#5F5E5A" text-anchor="middle" font-weight="400">Tab</text>
<rect x="185.0" y="102.0" width="24.0" height="24.0" rx="3" fill="#F4F3EF" stroke="#C9C7BF" stroke-width="1"/>
<text x="197.0" y="117.8" font-family="Segoe UI, Helvetica, Arial, sans-serif" font-size="11" fill="#5F5E5A" text-anchor="middle" font-weight="400">Q</text>
<rect x="211.0" y="102.0" width="24.0" height="24.0" rx="3" fill="#F4F3EF" stroke="#C9C7BF" stroke-width="1"/>
<text x="223.0" y="117.8" font-family="Segoe UI, Helvetica, Arial, sans-serif" font-size="11" fill="#5F5E5A" text-anchor="middle" font-weight="400">W</text>
<rect x="237.0" y="102.0" width="24.0" height="24.0" rx="3" fill="#F4F3EF" stroke="#378ADD" stroke-width="2"/>
<text x="249.0" y="117.8" font-family="Segoe UI, Helvetica, Arial, sans-serif" font-size="11" fill="#0C447C" text-anchor="middle" font-weight="400">E</text>
<rect x="263.0" y="102.0" width="24.0" height="24.0" rx="3" fill="#F4F3EF" stroke="#C9C7BF" stroke-width="1"/>
<text x="275.0" y="117.8" font-family="Segoe UI, Helvetica, Arial, sans-serif" font-size="11" fill="#5F5E5A" text-anchor="middle" font-weight="400">R</text>
<rect x="289.0" y="102.0" width="24.0" height="24.0" rx="3" fill="#F4F3EF" stroke="#C9C7BF" stroke-width="1"/>
<text x="301.0" y="117.8" font-family="Segoe UI, Helvetica, Arial, sans-serif" font-size="11" fill="#5F5E5A" text-anchor="middle" font-weight="400">T</text>
<rect x="315.0" y="102.0" width="24.0" height="24.0" rx="3" fill="#F4F3EF" stroke="#C9C7BF" stroke-width="1"/>
<text x="327.0" y="117.8" font-family="Segoe UI, Helvetica, Arial, sans-serif" font-size="11" fill="#5F5E5A" text-anchor="middle" font-weight="400">Y</text>
<rect x="341.0" y="102.0" width="24.0" height="24.0" rx="3" fill="#F4F3EF" stroke="#C9C7BF" stroke-width="1"/>
<text x="353.0" y="117.8" font-family="Segoe UI, Helvetica, Arial, sans-serif" font-size="11" fill="#5F5E5A" text-anchor="middle" font-weight="400">U</text>
<rect x="367.0" y="102.0" width="24.0" height="24.0" rx="3" fill="#F4F3EF" stroke="#C9C7BF" stroke-width="1"/>
<text x="379.0" y="117.8" font-family="Segoe UI, Helvetica, Arial, sans-serif" font-size="11" fill="#5F5E5A" text-anchor="middle" font-weight="400">I</text>
<rect x="393.0" y="102.0" width="24.0" height="24.0" rx="3" fill="#F4F3EF" stroke="#C9C7BF" stroke-width="1"/>
<text x="405.0" y="117.8" font-family="Segoe UI, Helvetica, Arial, sans-serif" font-size="11" fill="#5F5E5A" text-anchor="middle" font-weight="400">O</text>
<rect x="419.0" y="102.0" width="24.0" height="24.0" rx="3" fill="#F4F3EF" stroke="#C9C7BF" stroke-width="1"/>
<text x="431.0" y="117.8" font-family="Segoe UI, Helvetica, Arial, sans-serif" font-size="11" fill="#5F5E5A" text-anchor="middle" font-weight="400">P</text>
<rect x="445.0" y="102.0" width="24.0" height="24.0" rx="3" fill="#F4F3EF" stroke="#C9C7BF" stroke-width="1"/>
<text x="457.0" y="117.8" font-family="Segoe UI, Helvetica, Arial, sans-serif" font-size="11" fill="#5F5E5A" text-anchor="middle" font-weight="400">[</text>
<rect x="471.0" y="102.0" width="24.0" height="24.0" rx="3" fill="#F4F3EF" stroke="#C9C7BF" stroke-width="1"/>
<text x="483.0" y="117.8" font-family="Segoe UI, Helvetica, Arial, sans-serif" font-size="11" fill="#5F5E5A" text-anchor="middle" font-weight="400">]</text>
<rect x="497.0" y="102.0" width="37.0" height="24.0" rx="3" fill="#F4F3EF" stroke="#C9C7BF" stroke-width="1"/>
<text x="515.5" y="117.8" font-family="Segoe UI, Helvetica, Arial, sans-serif" font-size="11" fill="#5F5E5A" text-anchor="middle" font-weight="400">\</text>
<rect x="146.0" y="128.0" width="43.5" height="24.0" rx="3" fill="#F4F3EF" stroke="#C9C7BF" stroke-width="1"/>
<text x="167.8" y="143.8" font-family="Segoe UI, Helvetica, Arial, sans-serif" font-size="11" fill="#5F5E5A" text-anchor="middle" font-weight="400">Caps</text>
<rect x="191.5" y="128.0" width="24.0" height="24.0" rx="3" fill="#F4F3EF" stroke="#C9C7BF" stroke-width="1"/>
<text x="203.5" y="143.8" font-family="Segoe UI, Helvetica, Arial, sans-serif" font-size="11" fill="#5F5E5A" text-anchor="middle" font-weight="400">A</text>
<rect x="217.5" y="128.0" width="24.0" height="24.0" rx="3" fill="#F4F3EF" stroke="#C9C7BF" stroke-width="1"/>
<text x="229.5" y="143.8" font-family="Segoe UI, Helvetica, Arial, sans-serif" font-size="11" fill="#5F5E5A" text-anchor="middle" font-weight="400">S</text>
<rect x="243.5" y="128.0" width="24.0" height="24.0" rx="3" fill="#F4F3EF" stroke="#C9C7BF" stroke-width="1"/>
<text x="255.5" y="143.8" font-family="Segoe UI, Helvetica, Arial, sans-serif" font-size="11" fill="#5F5E5A" text-anchor="middle" font-weight="400">D</text>
<rect x="269.5" y="128.0" width="24.0" height="24.0" rx="3" fill="#F4F3EF" stroke="#C9C7BF" stroke-width="1"/>
<text x="281.5" y="143.8" font-family="Segoe UI, Helvetica, Arial, sans-serif" font-size="11" fill="#5F5E5A" text-anchor="middle" font-weight="400">F</text>
<rect x="295.5" y="128.0" width="24.0" height="24.0" rx="3" fill="#F4F3EF" stroke="#C9C7BF" stroke-width="1"/>
<text x="307.5" y="143.8" font-family="Segoe UI, Helvetica, Arial, sans-serif" font-size="11" fill="#5F5E5A" text-anchor="middle" font-weight="400">G</text>
<rect x="321.5" y="128.0" width="24.0" height="24.0" rx="3" fill="#F4F3EF" stroke="#C9C7BF" stroke-width="1"/>
<text x="333.5" y="143.8" font-family="Segoe UI, Helvetica, Arial, sans-serif" font-size="11" fill="#5F5E5A" text-anchor="middle" font-weight="400">H</text>
<rect x="347.5" y="128.0" width="24.0" height="24.0" rx="3" fill="#F4F3EF" stroke="#C9C7BF" stroke-width="1"/>
<text x="359.5" y="143.8" font-family="Segoe UI, Helvetica, Arial, sans-serif" font-size="11" fill="#5F5E5A" text-anchor="middle" font-weight="400">J</text>
<rect x="373.5" y="128.0" width="24.0" height="24.0" rx="3" fill="#F4F3EF" stroke="#C9C7BF" stroke-width="1"/>
<text x="385.5" y="143.8" font-family="Segoe UI, Helvetica, Arial, sans-serif" font-size="11" fill="#5F5E5A" text-anchor="middle" font-weight="400">K</text>
<rect x="399.5" y="128.0" width="24.0" height="24.0" rx="3" fill="#F4F3EF" stroke="#C9C7BF" stroke-width="1"/>
<text x="411.5" y="143.8" font-family="Segoe UI, Helvetica, Arial, sans-serif" font-size="11" fill="#5F5E5A" text-anchor="middle" font-weight="400">L</text>
<rect x="425.5" y="128.0" width="24.0" height="24.0" rx="3" fill="#F4F3EF" stroke="#C9C7BF" stroke-width="1"/>
<text x="437.5" y="143.8" font-family="Segoe UI, Helvetica, Arial, sans-serif" font-size="11" fill="#5F5E5A" text-anchor="middle" font-weight="400">;</text>
<rect x="451.5" y="128.0" width="24.0" height="24.0" rx="3" fill="#F4F3EF" stroke="#C9C7BF" stroke-width="1"/>
<text x="463.5" y="143.8" font-family="Segoe UI, Helvetica, Arial, sans-serif" font-size="11" fill="#5F5E5A" text-anchor="middle" font-weight="400">&#x27;</text>
<rect x="477.5" y="128.0" width="56.5" height="24.0" rx="3" fill="#F4F3EF" stroke="#C9C7BF" stroke-width="1"/>
<text x="505.8" y="143.8" font-family="Segoe UI, Helvetica, Arial, sans-serif" font-size="11" fill="#5F5E5A" text-anchor="middle" font-weight="400">Enter</text>
<rect x="146.0" y="154.0" width="56.5" height="24.0" rx="3" fill="#F4F3EF" stroke="#C9C7BF" stroke-width="1"/>
<text x="174.2" y="169.8" font-family="Segoe UI, Helvetica, Arial, sans-serif" font-size="11" fill="#5F5E5A" text-anchor="middle" font-weight="400">Shift</text>
<rect x="204.5" y="154.0" width="24.0" height="24.0" rx="3" fill="#F4F3EF" stroke="#C9C7BF" stroke-width="1"/>
<text x="216.5" y="169.8" font-family="Segoe UI, Helvetica, Arial, sans-serif" font-size="11" fill="#5F5E5A" text-anchor="middle" font-weight="400">Z</text>
<rect x="230.5" y="154.0" width="24.0" height="24.0" rx="3" fill="#F4F3EF" stroke="#C9C7BF" stroke-width="1"/>
<text x="242.5" y="169.8" font-family="Segoe UI, Helvetica, Arial, sans-serif" font-size="11" fill="#5F5E5A" text-anchor="middle" font-weight="400">X</text>
<rect x="256.5" y="154.0" width="24.0" height="24.0" rx="3" fill="#F4F3EF" stroke="#C9C7BF" stroke-width="1"/>
<text x="268.5" y="169.8" font-family="Segoe UI, Helvetica, Arial, sans-serif" font-size="11" fill="#5F5E5A" text-anchor="middle" font-weight="400">C</text>
<rect x="282.5" y="154.0" width="24.0" height="24.0" rx="3" fill="#F4F3EF" stroke="#C9C7BF" stroke-width="1"/>
<text x="294.5" y="169.8" font-family="Segoe UI, Helvetica, Arial, sans-serif" font-size="11" fill="#5F5E5A" text-anchor="middle" font-weight="400">V</text>
<rect x="308.5" y="154.0" width="24.0" height="24.0" rx="3" fill="#F4F3EF" stroke="#C9C7BF" stroke-width="1"/>
<text x="320.5" y="169.8" font-family="Segoe UI, Helvetica, Arial, sans-serif" font-size="11" fill="#5F5E5A" text-anchor="middle" font-weight="400">B</text>
<rect x="334.5" y="154.0" width="24.0" height="24.0" rx="3" fill="#F4F3EF" stroke="#C9C7BF" stroke-width="1"/>
<text x="346.5" y="169.8" font-family="Segoe UI, Helvetica, Arial, sans-serif" font-size="11" fill="#5F5E5A" text-anchor="middle" font-weight="400">N</text>
<rect x="360.5" y="154.0" width="24.0" height="24.0" rx="3" fill="#F4F3EF" stroke="#C9C7BF" stroke-width="1"/>
<text x="372.5" y="169.8" font-family="Segoe UI, Helvetica, Arial, sans-serif" font-size="11" fill="#5F5E5A" text-anchor="middle" font-weight="400">M</text>
<rect x="386.5" y="154.0" width="24.0" height="24.0" rx="3" fill="#F4F3EF" stroke="#C9C7BF" stroke-width="1"/>
<text x="398.5" y="169.8" font-family="Segoe UI, Helvetica, Arial, sans-serif" font-size="11" fill="#5F5E5A" text-anchor="middle" font-weight="400">,</text>
<rect x="412.5" y="154.0" width="24.0" height="24.0" rx="3" fill="#F4F3EF" stroke="#C9C7BF" stroke-width="1"/>
<text x="424.5" y="169.8" font-family="Segoe UI, Helvetica, Arial, sans-serif" font-size="11" fill="#5F5E5A" text-anchor="middle" font-weight="400">.</text>
<rect x="438.5" y="154.0" width="24.0" height="24.0" rx="3" fill="#F4F3EF" stroke="#C9C7BF" stroke-width="1"/>
<text x="450.5" y="169.8" font-family="Segoe UI, Helvetica, Arial, sans-serif" font-size="11" fill="#5F5E5A" text-anchor="middle" font-weight="400">/</text>
<rect x="464.5" y="154.0" width="69.5" height="24.0" rx="3" fill="#F4F3EF" stroke="#C9C7BF" stroke-width="1"/>
<text x="499.2" y="169.8" font-family="Segoe UI, Helvetica, Arial, sans-serif" font-size="11" fill="#5F5E5A" text-anchor="middle" font-weight="400">Shift</text>
<rect x="146.0" y="180.0" width="30.5" height="24.0" rx="3" fill="#F4F3EF" stroke="#C9C7BF" stroke-width="1"/>
<text x="161.2" y="195.8" font-family="Segoe UI, Helvetica, Arial, sans-serif" font-size="11" fill="#5F5E5A" text-anchor="middle" font-weight="400">Ctrl</text>
<rect x="178.5" y="180.0" width="30.5" height="24.0" rx="3" fill="#F4F3EF" stroke="#C9C7BF" stroke-width="1"/>
<text x="193.8" y="195.8" font-family="Segoe UI, Helvetica, Arial, sans-serif" font-size="11" fill="#5F5E5A" text-anchor="middle" font-weight="400">Win</text>
<rect x="211.0" y="180.0" width="30.5" height="24.0" rx="3" fill="#F4F3EF" stroke="#C9C7BF" stroke-width="1"/>
<text x="226.2" y="195.8" font-family="Segoe UI, Helvetica, Arial, sans-serif" font-size="11" fill="#5F5E5A" text-anchor="middle" font-weight="400">Alt</text>
<rect x="243.5" y="180.0" width="160.5" height="24.0" rx="3" fill="#F4F3EF" stroke="#C9C7BF" stroke-width="1"/>
<rect x="406.0" y="180.0" width="30.5" height="24.0" rx="3" fill="#F4F3EF" stroke="#C9C7BF" stroke-width="1"/>
<text x="421.2" y="195.8" font-family="Segoe UI, Helvetica, Arial, sans-serif" font-size="11" fill="#5F5E5A" text-anchor="middle" font-weight="400">Alt</text>
<rect x="438.5" y="180.0" width="30.5" height="24.0" rx="3" fill="#F4F3EF" stroke="#C9C7BF" stroke-width="1"/>
<text x="453.8" y="195.8" font-family="Segoe UI, Helvetica, Arial, sans-serif" font-size="11" fill="#5F5E5A" text-anchor="middle" font-weight="400">Fn</text>
<rect x="471.0" y="180.0" width="30.5" height="24.0" rx="3" fill="#F4F3EF" stroke="#C9C7BF" stroke-width="1"/>
<text x="486.2" y="195.8" font-family="Segoe UI, Helvetica, Arial, sans-serif" font-size="11" fill="#5F5E5A" text-anchor="middle" font-weight="400">Menu</text>
<rect x="503.5" y="180.0" width="30.5" height="24.0" rx="3" fill="#F4F3EF" stroke="#C9C7BF" stroke-width="1"/>
<text x="518.8" y="195.8" font-family="Segoe UI, Helvetica, Arial, sans-serif" font-size="11" fill="#5F5E5A" text-anchor="middle" font-weight="400">Ctrl</text>
<line x1="12" y1="213" x2="668" y2="213" stroke="#E2E0D8" stroke-width="1"/>
<rect x="12.0" y="221.0" width="53.0" height="21.0" rx="6" fill="#E6F1FB" stroke="#378ADD" stroke-width="1"/>
<text x="38.5" y="236.0" font-family="Segoe UI, Helvetica, Arial, sans-serif" font-size="12" fill="#0C447C" text-anchor="middle" font-weight="400">Basic</text>
<rect x="69.0" y="221.0" width="59.6" height="21.0" rx="6" fill="#FFFFFF" stroke="#E2E0D8" stroke-width="1"/>
<text x="98.8" y="236.0" font-family="Segoe UI, Helvetica, Arial, sans-serif" font-size="12" fill="#5F5E5A" text-anchor="middle" font-weight="400">Layers</text>
<rect x="132.6" y="221.0" width="79.4" height="21.0" rx="6" fill="#FFFFFF" stroke="#E2E0D8" stroke-width="1"/>
<text x="172.3" y="236.0" font-family="Segoe UI, Helvetica, Arial, sans-serif" font-size="12" fill="#5F5E5A" text-anchor="middle" font-weight="400">Modifiers</text>
<rect x="216.0" y="221.0" width="53.0" height="21.0" rx="6" fill="#FFFFFF" stroke="#E2E0D8" stroke-width="1"/>
<text x="242.5" y="236.0" font-family="Segoe UI, Helvetica, Arial, sans-serif" font-size="12" fill="#5F5E5A" text-anchor="middle" font-weight="400">Media</text>
<rect x="273.0" y="221.0" width="72.8" height="21.0" rx="6" fill="#FFFFFF" stroke="#E2E0D8" stroke-width="1"/>
<text x="309.4" y="236.0" font-family="Segoe UI, Helvetica, Arial, sans-serif" font-size="12" fill="#5F5E5A" text-anchor="middle" font-weight="400">Lighting</text>
<rect x="349.8" y="221.0" width="59.6" height="21.0" rx="6" fill="#FFFFFF" stroke="#E2E0D8" stroke-width="1"/>
<text x="379.6" y="236.0" font-family="Segoe UI, Helvetica, Arial, sans-serif" font-size="12" fill="#5F5E5A" text-anchor="middle" font-weight="400">Macros</text>
<rect x="548.0" y="221.0" width="120.0" height="21.0" rx="6" fill="#FFFFFF" stroke="#C9C7BF" stroke-width="1"/>
<text x="558.0" y="236.0" font-family="Segoe UI, Helvetica, Arial, sans-serif" font-size="12" fill="#888780" text-anchor="start" font-weight="400">Search</text>
<rect x="12.0" y="251.0" width="26.0" height="22.0" rx="4" fill="#FFFFFF" stroke="#C9C7BF" stroke-width="1"/>
<text x="25.0" y="266.0" font-family="Segoe UI, Helvetica, Arial, sans-serif" font-size="11" fill="#5F5E5A" text-anchor="middle" font-weight="400">A</text>
<rect x="42.0" y="251.0" width="26.0" height="22.0" rx="4" fill="#FFFFFF" stroke="#C9C7BF" stroke-width="1"/>
<text x="55.0" y="266.0" font-family="Segoe UI, Helvetica, Arial, sans-serif" font-size="11" fill="#5F5E5A" text-anchor="middle" font-weight="400">B</text>
<rect x="72.0" y="251.0" width="26.0" height="22.0" rx="4" fill="#FFFFFF" stroke="#C9C7BF" stroke-width="1"/>
<text x="85.0" y="266.0" font-family="Segoe UI, Helvetica, Arial, sans-serif" font-size="11" fill="#5F5E5A" text-anchor="middle" font-weight="400">C</text>
<rect x="102.0" y="251.0" width="26.0" height="22.0" rx="4" fill="#FFFFFF" stroke="#C9C7BF" stroke-width="1"/>
<text x="115.0" y="266.0" font-family="Segoe UI, Helvetica, Arial, sans-serif" font-size="11" fill="#5F5E5A" text-anchor="middle" font-weight="400">D</text>
<rect x="132.0" y="251.0" width="26.0" height="22.0" rx="4" fill="#FFFFFF" stroke="#C9C7BF" stroke-width="1"/>
<text x="145.0" y="266.0" font-family="Segoe UI, Helvetica, Arial, sans-serif" font-size="11" fill="#5F5E5A" text-anchor="middle" font-weight="400">E</text>
<rect x="162.0" y="251.0" width="26.0" height="22.0" rx="4" fill="#FFFFFF" stroke="#C9C7BF" stroke-width="1"/>
<text x="175.0" y="266.0" font-family="Segoe UI, Helvetica, Arial, sans-serif" font-size="11" fill="#5F5E5A" text-anchor="middle" font-weight="400">F</text>
<rect x="192.0" y="251.0" width="26.0" height="22.0" rx="4" fill="#FFFFFF" stroke="#C9C7BF" stroke-width="1"/>
<text x="205.0" y="266.0" font-family="Segoe UI, Helvetica, Arial, sans-serif" font-size="11" fill="#5F5E5A" text-anchor="middle" font-weight="400">G</text>
<rect x="222.0" y="251.0" width="26.0" height="22.0" rx="4" fill="#FFFFFF" stroke="#C9C7BF" stroke-width="1"/>
<text x="235.0" y="266.0" font-family="Segoe UI, Helvetica, Arial, sans-serif" font-size="11" fill="#5F5E5A" text-anchor="middle" font-weight="400">H</text>
<rect x="252.0" y="251.0" width="26.0" height="22.0" rx="4" fill="#FFFFFF" stroke="#C9C7BF" stroke-width="1"/>
<text x="265.0" y="266.0" font-family="Segoe UI, Helvetica, Arial, sans-serif" font-size="11" fill="#5F5E5A" text-anchor="middle" font-weight="400">I</text>
<rect x="282.0" y="251.0" width="26.0" height="22.0" rx="4" fill="#FFFFFF" stroke="#C9C7BF" stroke-width="1"/>
<text x="295.0" y="266.0" font-family="Segoe UI, Helvetica, Arial, sans-serif" font-size="11" fill="#5F5E5A" text-anchor="middle" font-weight="400">J</text>
<rect x="312.0" y="251.0" width="26.0" height="22.0" rx="4" fill="#FFFFFF" stroke="#C9C7BF" stroke-width="1"/>
<text x="325.0" y="266.0" font-family="Segoe UI, Helvetica, Arial, sans-serif" font-size="11" fill="#5F5E5A" text-anchor="middle" font-weight="400">K</text>
<rect x="342.0" y="251.0" width="26.0" height="22.0" rx="4" fill="#FFFFFF" stroke="#C9C7BF" stroke-width="1"/>
<text x="355.0" y="266.0" font-family="Segoe UI, Helvetica, Arial, sans-serif" font-size="11" fill="#5F5E5A" text-anchor="middle" font-weight="400">L</text>
<rect x="372.0" y="251.0" width="26.0" height="22.0" rx="4" fill="#FFFFFF" stroke="#C9C7BF" stroke-width="1"/>
<text x="385.0" y="266.0" font-family="Segoe UI, Helvetica, Arial, sans-serif" font-size="11" fill="#5F5E5A" text-anchor="middle" font-weight="400">M</text>
<rect x="402.0" y="251.0" width="26.0" height="22.0" rx="4" fill="#FFFFFF" stroke="#C9C7BF" stroke-width="1"/>
<text x="415.0" y="266.0" font-family="Segoe UI, Helvetica, Arial, sans-serif" font-size="11" fill="#5F5E5A" text-anchor="middle" font-weight="400">N</text>
<rect x="432.0" y="251.0" width="26.0" height="22.0" rx="4" fill="#FFFFFF" stroke="#C9C7BF" stroke-width="1"/>
<text x="445.0" y="266.0" font-family="Segoe UI, Helvetica, Arial, sans-serif" font-size="11" fill="#5F5E5A" text-anchor="middle" font-weight="400">O</text>
<rect x="462.0" y="251.0" width="26.0" height="22.0" rx="4" fill="#FFFFFF" stroke="#C9C7BF" stroke-width="1"/>
<text x="475.0" y="266.0" font-family="Segoe UI, Helvetica, Arial, sans-serif" font-size="11" fill="#5F5E5A" text-anchor="middle" font-weight="400">P</text>
</svg>
